<svg id="Layer_1" data-name="Layer 1" xmlns="http://www.w3.org/2000/svg" viewBox="0 0 48 48"><defs><style>.cls-1{fill:#dc312d;}.cls-2{fill:#fff;fill-rule:evenodd;}</style></defs><title>backupplan48</title><rect class="cls-1" width="48" height="48" rx="20"/><path class="cls-2" d="M40.7,22.3C39.13,15.15,30.62,8.65,23.23,9.18c-.43,0-.86,0-1.28.09A14.25,14.25,0,0,1,24,8.91a15.75,15.75,0,0,1,15.31,7.85.68.68,0,0,0,1.29-.35.77.77,0,0,0-.1-.29A15.76,15.76,0,0,0,24.06,5.75c-8.41.88-14.23,8.58-14.6,16.34-1.16-6.43,2-12,7.88-14.59l.08,0a.46.46,0,0,0,.3-.59.47.47,0,0,0-.59-.3l-.1,0-.38.12A15.11,15.11,0,0,0,7,25.83c2.24,6.83,10.57,12,17.63,11.48.35,0,.7,0,1.06-.07a14.17,14.17,0,0,0,4.7-1.34,15.74,15.74,0,0,1-16.84.42.68.68,0,0,0-1,.94.74.74,0,0,0,.23.2,15.75,15.75,0,0,0,19.45.95c6.09-4.32,7.69-11.78,5.9-18.08A15.1,15.1,0,0,1,39,22.41C41.31,30.49,36.49,39.25,28.22,42a16.88,16.88,0,0,1-3.2.71A16.15,16.15,0,0,0,30,41.86C38.23,39.14,42.26,29.46,40.7,22.3ZM29.33,34.62a.5.5,0,0,1-.2.08.48.48,0,0,1-.53-.43.46.46,0,0,1,.28-.49,11.3,11.3,0,0,0,5.63-11,11.88,11.88,0,0,0-.26-1.49c0,.3.06.61.06.91.82,11.45-15.94,18.1-21.61,8.16a7.56,7.56,0,0,1-.94-2.67,7.72,7.72,0,0,0,.73,1.71c2.47,4.34,8.68,6.08,13.86,3.89a11.35,11.35,0,0,0,2.2-1.22c-4.86,2.44-11.57,1.74-15.2-3.37A11.28,11.28,0,0,1,14,14.77a.46.46,0,0,1,.14-.17.49.49,0,0,1,.68.12.48.48,0,0,1,0,.56,11.28,11.28,0,0,0,.31,12.08C13.22,23.39,14,17,16.91,14a11,11,0,0,1,13.82-1.53,8.33,8.33,0,0,1,2,2,8.67,8.67,0,0,0-1.39-1.22A11,11,0,0,0,17.52,14.7a8.65,8.65,0,0,0-.91,1.11,9.93,9.93,0,0,1,1.76-1.59c6.75-4.79,17.5,0,18.4,8.59A11.28,11.28,0,0,1,29.33,34.62Z" transform="translate(0 0)"/><path class="cls-2" d="M28.75,17.18a6.68,6.68,0,0,0-6.54-.83l-.47.19a6.79,6.79,0,0,0-1.93,1.29,7.48,7.48,0,0,1,7.55-2.65.32.32,0,0,0,.36-.12.31.31,0,0,0-.06-.44.42.42,0,0,0-.14-.06A7.49,7.49,0,0,0,18.59,17C14.3,22.74,20.21,31.59,27,28.86a5.48,5.48,0,0,0,.56-.23,8.34,8.34,0,0,1-.89.47,7.47,7.47,0,0,1-8.07-1.31.34.34,0,0,0-.37-.08.33.33,0,0,0-.16.43.31.31,0,0,0,.09.11,7.47,7.47,0,0,0,9,2.28C32.31,28.22,33.15,20.45,28.75,17.18Zm1.19,4.51a3.63,3.63,0,0,0-.18-.76,4.66,4.66,0,0,0-5.13-2.85,3.65,3.65,0,0,0-.59.16,4.09,4.09,0,0,1,1-.12c3.49,0,6,4.29,4.23,7.46a4.76,4.76,0,0,1-5.45,2.25.16.16,0,0,1-.09,0,.2.2,0,0,1-.08-.27.21.21,0,0,1,.22-.1A4.78,4.78,0,0,0,28.5,25a6.11,6.11,0,0,0,.27-.58,2.63,2.63,0,0,1-.2.33c-2.52,4.14-9.91,2.34-9.44-2.47a3.27,3.27,0,0,1,.33-1.15,3.11,3.11,0,0,0-.16.76,4.72,4.72,0,0,0,3.82,4.74,4.81,4.81,0,0,0,1.05.11,5.06,5.06,0,0,1-4.4-4.88,4.77,4.77,0,0,1,3.64-4.63l.09,0a.21.21,0,0,1,.21.2.22.22,0,0,1-.14.2,4.77,4.77,0,0,0-2.85,4.23,5.64,5.64,0,0,1,3.88-4.19,4.66,4.66,0,0,1,5.13,2.86A3.43,3.43,0,0,1,29.94,21.69Z" transform="translate(0 0)"/></svg>